<svg width="2.9em" height="1em" viewBox="0 0 474 164" fill="currentColor" version="1.1" xmlns="http://www.w3.org/2000/svg" xmlns:xlink="http://www.w3.org/1999/xlink">
    <g stroke="none" stroke-width="1" fill="currentColor" fill-rule="evenodd">
        <path d="M84.625,70.15 C89.9250265,75.4500265 92.575,82.7499535 92.575,92.05 L92.575,104.8 C92.575,111.700035 90.175024,117.649975 85.375,122.65 C80.6749765,127.550025 74.825035,130 67.825,130 L5.125,130 L5.125,121 L67.825,121 C72.3250225,121 76.0249855,119.450016 78.925,116.35 C82.0250155,113.249984 83.575,109.400023 83.575,104.8 L83.575,92.05 C83.575,79.049935 77.075065,72.050005 64.075,71.05 L29.725,68.35 C19.924951,67.149994 12.925021,65.0000155 8.725,61.9 C5.6249845,59.5999885 3.4250065,56.6000185 2.125,52.9 C0.724993,49.3999825 0.025,44.9000275 0.025,39.4 L0.025,27.4 C0.025,20.4999655 2.424976,14.550025 7.225,9.55 C12.1250245,4.6499755 17.974966,2.2 24.775,2.2 L85.075,2.2 L85.075,11.2 L24.775,11.2 C20.2749775,11.2 16.5750145,12.7499845 13.675,15.85 C10.5749845,19.1500165 9.025,22.999978 9.025,27.4 L9.025,39.4 C9.025,46.9000375 10.7749825,51.9999865 14.275,54.7 C16.9750135,56.900011 22.424959,58.4499955 30.625,59.35 L64.825,62.05 C73.225042,62.850004 79.824976,65.549977 84.625,70.15 Z M155.225,118.15 L185.525,39.55 L195.125,39.55 L152.675,149.95 C151.174993,154.150021 148.525019,157.499987 144.725,160 C140.82498,162.500013 136.725021,163.75 132.425,163.75 L120.275,163.75 L120.275,154.75 L132.425,154.75 C135.125013,154.75 137.52499,154.000008 139.625,152.5 C141.825011,151.099993 143.374996,149.200012 144.275,146.8 L150.425,130.6 L115.625,39.55 L125.225,39.55 L155.225,118.15 Z M278.475,47.65 C282.47502,52.050022 284.475,58.2999595 284.475,66.4 L284.475,132.1 L275.475,132.1 L275.475,66.4 C275.475,60.6999715 274.225012,56.450014 271.725,53.65 C269.424988,51.1499875 266.025022,49.9 261.525,49.9 L225.375,49.9 L225.375,132.1 L216.375,132.1 L216.375,40.9 L261.525,40.9 C268.625035,40.9 274.274979,43.1499775 278.475,47.65 Z M326.575,57.4 C322.074977,61.9000225 319.825,67.349968 319.825,73.75 L319.825,100 C319.825,105.600028 321.874979,110.549978 325.975,114.85 C330.07502,118.95002 335.024971,121 340.825,121 L378.775,121 L378.775,130 L340.825,130 C332.424958,130 325.375028,127.050029 319.675,121.15 C313.77497,115.249971 310.825,108.200041 310.825,100 L310.825,73.75 C310.825,64.949956 313.974968,57.4000315 320.275,51.1 C326.37503,44.7999685 333.924955,41.65 342.925,41.65 L378.775,41.65 L378.775,50.65 L342.925,50.65 C336.524968,50.65 331.075022,52.8999775 326.575,57.4 Z M464.525,0.4 L473.525,0.4 L473.525,130 L429.575,130 C421.174958,130 414.125028,127.050029 408.425,121.15 C402.52497,115.249971 399.575,108.200041 399.575,100 L399.575,73.75 C399.575,64.749955 402.724968,57.2000305 409.025,51.1 C415.12503,44.7999685 422.674955,41.65 431.675,41.65 L454.925,41.65 L454.925,50.65 L431.675,50.65 C425.274968,50.65 419.825022,52.8999775 415.325,57.4 C410.824977,61.9000225 408.575,67.349968 408.575,73.75 L408.575,100 C408.575,105.600028 410.624979,110.549978 414.725,114.85 C418.82502,118.95002 423.774971,121 429.575,121 L464.525,121 L464.525,0.4 Z" fill="#579EF8"></path>
    </g>
</svg>
