<?xml version="1.0" encoding="UTF-8"?>
<svg width="294px" height="90px" viewBox="0 0 294 90" version="1.1" xmlns="http://www.w3.org/2000/svg" xmlns:xlink="http://www.w3.org/1999/xlink">
    <!-- Generator: Sketch 47.1 (45422) - http://www.bohemiancoding.com/sketch -->
    <title>logo</title>
    <desc>Created with Sketch.</desc>
    <defs></defs>
    <g id="Page-1" stroke="none" stroke-width="1" fill="none" fill-rule="evenodd">
        <g id="logo_lightbg" transform="translate(-163.000000, -92.000000)">
            <g id="logo" transform="translate(163.000000, 91.000000)">
                <path d="M114,13 L114,7 L114,7 C114,5.8954305 114.895431,5 116,5 L149,5 C150.104569,5 151,5.8954305 151,7 L151,13 C151,14.1045695 150.104569,15 149,15 L135.311293,15 L135.311293,15 C134.51504,15 133.79464,15.4723278 133.477153,16.2025478 L124.608142,36.6012739 C124.387931,37.1077577 124.620002,37.6968597 125.126486,37.9170701 C125.252299,37.9717714 125.388022,38 125.525212,38 L149,38 C150.104569,38 151,38.8954305 151,40 L151,85 C151,86.1045695 150.104569,87 149,87 L116,87 C114.895431,87 114,86.1045695 114,85 L114,38.4159745 L114,38.4159745 C114,38.1415941 114.056457,37.8701483 114.16586,37.6185223 L123.391858,16.3987261 L123.391858,16.3987261 C123.612069,15.8922423 123.379998,15.3031403 122.873514,15.0829299 C122.747701,15.0282286 122.611978,15 122.474788,15 L116,15 C114.895431,15 114,14.1045695 114,13 L114,13 Z M140,48 L125,48 C124.447715,48 124,48.4477153 124,49 L124,76 C124,76.5522847 124.447715,77 125,77 L140,77 C140.552285,77 141,76.5522847 141,76 L141,49 C141,48.4477153 140.552285,48 140,48 Z M198,40 L198,85 C198,86.1045695 197.104569,87 196,87 L175,87 C173.895431,87 173,86.1045695 173,85 L173,79 C173,77.8954305 173.895431,77 175,77 L187,77 C187.552285,77 188,76.5522847 188,76 L188,49 C188,48.4477153 187.552285,48 187,48 L157,48 C155.895431,48 155,47.1045695 155,46 L155,7 C155,5.8954305 155.895431,5 157,5 L191,5 L191,5 C192.104569,5 193,5.8954305 193,7 L193,30 C193,31.1045695 192.104569,32 191,32 L185,32 L185,32 C183.895431,32 183,31.1045695 183,30 L183,16 C183,15.4477153 182.552285,15 182,15 L166,15 C165.447715,15 165,15.4477153 165,16 L165,37 C165,37.5522847 165.447715,38 166,38 L196,38 C197.104569,38 198,38.8954305 198,40 Z M155,66 L155,60 C155,58.8954305 155.895431,58 157,58 L180,58 C181.104569,58 182,58.8954305 182,60 L182,66 C182,67.1045695 181.104569,68 180,68 L157,68 C155.895431,68 155,67.1045695 155,66 Z M220,15 C218.895431,15 218,14.1045695 218,13 L218,7 C218,5.8954305 218.895431,5 220,5 L284,5 C285.104569,5 286,5.8954305 286,7 L286,7 L286,13 C286,14.1045695 285.104569,15 284,15 L220,15 Z M275.038116,51 C285.587495,51 294,57.6783124 294,68.1 C294,79.8 285.835362,87 275,87 C275,87 275,78 275,77 C279.514734,77 283.164638,73.5054987 283.164638,68.1 C283.164638,57.4169593 264.810263,54.1750651 257,70.1769884 C258.199799,54.8096817 268.050005,51 275.038116,51 Z M216,31 L288,31 C289.104569,31 290,31.8954305 290,33 L290,39 C290,40.1045695 289.104569,41 288,41 L239.404184,41 L239.404184,41 C238.561535,41 237.809278,41.528154 237.523077,42.3207111 L225.483761,75.6603555 C225.29618,76.1798091 225.565216,76.7529734 226.08467,76.9405539 C226.193589,76.9798857 226.308512,77 226.424314,77 L275,77 L275,87 L216,87 C214.895431,87 214,86.1045695 214,85 L214,77.350049 L214,77.350049 C214,77.1184433 214.040229,76.8885977 214.118892,76.6707601 L226.516239,42.3396445 C226.70382,41.8201909 226.434784,41.2470266 225.91533,41.0594461 C225.806411,41.0201143 225.691488,41 225.575686,41 L216,41 C214.895431,41 214,40.1045695 214,39 L214,33 C214,31.8954305 214.895431,31 216,31 Z" id="Combined-Shape" fill="#2D3131"></path>
                <path d="M86,37 L40,37 L40,37.0010476 C37.7912701,37.0010476 36.0005785,38.7912703 36.0000001,41.0000001 L35.9963338,51.0000001 L35.9952531,50.9999999 C35.9946746,53.2091388 37.7850666,55.0004687 39.9942055,55.0010472 C39.9945658,55.0010473 39.994926,55.0010473 39.9952863,55.0010473 L68,54.9997333 L68,54.9997 C70.209139,54.9996816 72.0000149,56.7905277 72.0000333,58.9996667 C72.0000333,58.9996778 72.0000333,58.9996889 72.0000333,58.9997 L72,59.9997 L72,61 L72,61 C72,67.627417 66.627417,73 60,73 L21.9970229,73 L21.9970229,72.9998897 C19.788201,72.9998897 17.99758,71.2093181 17.9975191,69.0004962 L17.9963613,31 L17.9960306,31 C17.9958479,24.372583 23.3682828,18.9998519 29.9956998,18.9996692 C29.99581,18.9996692 29.9959203,18.9996692 29.9960306,18.9996692 L85.988836,19 L85.988836,18.9975183 C88.1970062,18.9975183 89.9874656,17.208169 89.9888352,14.9999992 L89.9975191,4.99999923 L89.9999992,5.00000077 C90.0013694,2.79086219 88.2116195,0.998890802 86.0024809,0.997520639 C86.0016539,0.997520127 86.000827,0.99751987 86,0.99751987 L30,1 L30,1.00016539 C13.4315221,1.00016539 9.13442924e-05,14.4315221 4.58559413e-10,31 L-0.000474127419,87 L-0.000496179797,87 C-0.000508359022,89.209139 1.79034277,91.0000099 3.99948177,91.0000221 C3.99948912,91.0000221 3.99949647,91.0000221 3.99950382,91.0000221 L63,91 L63,91 C77.9116882,91 90,78.9116882 90,64 L90,41 L90,41 C90,38.790861 88.209139,37 86,37 Z" id="G" fill="#C71D23"></path>
            </g>
        </g>
    </g>
</svg>